<?xml version="1.0" encoding="UTF-8"?>
<svg width="221.1mm" height="89.44mm" version="1.1" viewBox="0 0 221.08952 89.444618" xmlns="http://www.w3.org/2000/svg">
 <g transform="translate(332 -40.48)">
  <g transform="matrix(.862 0 0 .862 1.774 -499.5)" clip-rule="evenodd" fill="#fff" fill-rule="evenodd">
   <path class="st0" d="m-366.5 698h33.82v11.45h-34v-11.45zm-4.182-50.91v17.45c0 0.9091 0.7273 1.636 1.636 1.636h36.36v11.45h-44.18c-2.909 0-5.455 1.091-7.273 3.091-1.818 1.818-3.091 4.364-3.091 7.273v32.18c0 2.909 1.091 5.455 3.091 7.273 1.273 1.273 3.091 2.364 5.091 2.727h59.64c1.818-0.5455 3.455-1.455 4.727-2.727 1.818-1.818 3.091-4.546 3.091-7.273v-64c0-2.909-1.091-5.455-3.091-7.273-1.636-1.636-3.818-2.727-6.364-2.909-0.3636-0.1818-0.5455-0.3636-1.091-0.3636h-46.91c-0.7273-0.1818-1.636 0.5455-1.636 1.455z" stroke-width="1.818"/>
   <path d="m-302.2 626.4c-0.9091 0-1.636 0.7295-1.636 1.639v13.45h20.55v-13.45c0-0.9091-0.727-1.639-1.636-1.639zm-1.7 19.58v75.83h0.064v6.355c0 0.9091 0.727 1.639 1.636 1.639h17.27c0.9091 0 1.636-0.7295 1.636-1.639v-6.355h0.0666v-75.83z" stroke-width="1.818"/>
   <path d="m-269.8 646c-2.016 0.3636-3.862 1.454-5.374 2.909-1.68 1.818-2.857 4.547-2.857 7.274v64c0 2.727 1.006 5.453 2.686 7.271 0.8399 1.091 3.195 2.545 4.371 2.727h42.35v-0.0102h5.379v0.0102h14.82c1.965-0.3636 3.765-1.454 5.239-2.909 1.637-1.818 2.783-4.547 2.783-7.274v-21.85h-0.0282v-41.78c0-2.909-1.01-5.456-2.857-7.274-1.008-1.455-3.189-2.909-5.205-3.09h-9.576zm11.09 20.54h39.48v33.46h0.0131v9.627h-4.017v8e-3h-5.379v-5e-3h-30.09z" stroke-width="1.748"/>
   <path d="m-193.7 645.7c-0.9091 0-1.636 0.6796-1.636 1.529v73.76h0.0512v7.73c0 0.8449 0.727 1.523 1.636 1.523h17.27c0.9091 0 1.636-0.6785 1.636-1.523v-30.68h22.98v24.89h0.0512v5.63c0 0.935 0.7369 1.687 1.659 1.687h17.52c0.9223 0 1.662-0.7523 1.662-1.687v-13.83h-0.01v-5.195h6e-3v-21.85c0-2.727-1.146-5.456-2.783-7.274-1.474-1.455-3.274-2.545-5.239-2.909h-10.81v-0.0512h-25.04v-20.09h-0.0512v-10.12c0-0.849-0.727-1.529-1.636-1.529zm43.69 0c-0.9222 0-1.659 0.7498-1.659 1.685v13.83h0.064v11.31c0 0.935 0.7369 1.685 1.659 1.685h17.53c0.9223 0 1.659-0.7498 1.659-1.685v-13.83h-0.0641v-11.31c0-0.935-0.7368-1.685-1.659-1.685z" stroke-width="1.725"/>
  </g>
 </g>
</svg>
