<?xml version="1.0" encoding="UTF-8" standalone="no"?>
<!-- Created with Inkscape (http://www.inkscape.org/) -->

<svg
   xmlns:dc="http://purl.org/dc/elements/1.1/"
   xmlns:cc="http://creativecommons.org/ns#"
   xmlns:rdf="http://www.w3.org/1999/02/22-rdf-syntax-ns#"
   xmlns:svg="http://www.w3.org/2000/svg"
   xmlns="http://www.w3.org/2000/svg"
   xmlns:sodipodi="http://sodipodi.sourceforge.net/DTD/sodipodi-0.dtd"
   xmlns:inkscape="http://www.inkscape.org/namespaces/inkscape"
   width="221.08952mm"
   height="89.444618mm"
   viewBox="0 0 221.08952 89.444618"
   version="1.1"
   id="svg4940"
   inkscape:version="0.92.1 r15371"
   sodipodi:docname="logo.svg">
  <defs
     id="defs4934" />
  <sodipodi:namedview
     id="base"
     pagecolor="#ffffff"
     bordercolor="#666666"
     borderopacity="1.0"
     inkscape:pageopacity="0.0"
     inkscape:pageshadow="2"
     inkscape:zoom="0.35"
     inkscape:cx="1179.2356"
     inkscape:cy="-71.457411"
     inkscape:document-units="mm"
     inkscape:current-layer="layer1"
     showgrid="false"
     fit-margin-top="0"
     fit-margin-left="0"
     fit-margin-right="0"
     fit-margin-bottom="0"
     inkscape:window-width="1920"
     inkscape:window-height="1017"
     inkscape:window-x="-8"
     inkscape:window-y="-8"
     inkscape:window-maximized="1" />
  <metadata
     id="metadata4937">
    <rdf:RDF>
      <cc:Work
         rdf:about="">
        <dc:format>image/svg+xml</dc:format>
        <dc:type
           rdf:resource="http://purl.org/dc/dcmitype/StillImage" />
        <dc:title></dc:title>
      </cc:Work>
    </rdf:RDF>
  </metadata>
  <g
     inkscape:label="Layer 1"
     inkscape:groupmode="layer"
     id="layer1"
     transform="translate(332.03881,-40.482272)">
    <g
       id="g8353"
       style="fill:#ffffff;fill-opacity:1"
       transform="matrix(0.86204047,0,0,0.86204047,1.7737036,-499.54248)">
      <path
         inkscape:export-ydpi="637.03998"
         inkscape:export-xdpi="637.03998"
         class="st0"
         d="m -366.50762,698.02589 h 33.81889 v 11.45478 h -34.00071 v -11.45478 z m -4.18191,-50.91015 v 17.4549 c 0,0.90911 0.72729,1.6364 1.6364,1.6364 h 36.3644 v 11.4548 h -43.63727 -0.18183 v 0 h -0.36364 c -2.90916,0 -5.45467,1.09093 -7.27288,3.09097 -1.81822,1.81822 -3.09097,4.36372 -3.09097,7.27287 v 32.18249 c 0,2.90916 1.09093,5.45467 3.09097,7.27289 1.27275,1.27275 3.09097,2.36368 5.09101,2.72732 h 4.54555 49.63739 5.45467 c 1.81822,-0.54546 3.45461,-1.45457 4.72737,-2.72732 v 0 c 1.81821,-1.81822 3.09097,-4.54555 3.09097,-7.27289 v -64.00133 c 0,-2.90916 -1.09093,-5.45466 -3.09097,-7.27288 -1.6364,-1.6364 -3.81826,-2.72733 -6.36376,-2.90915 -0.36365,-0.18182 -0.54547,-0.36364 -1.09095,-0.36364 v 0 h -46.91006 c -0.72729,-0.18182 -1.6364,0.54546 -1.6364,1.45457 z"
         id="path13-6-1-1-3"
         inkscape:connector-curvature="0"
         style="clip-rule:evenodd;fill:#ffffff;fill-opacity:1;fill-rule:evenodd;stroke-width:1.81822014" />
      <path
         inkscape:export-ydpi="637.03998"
         inkscape:export-xdpi="637.03998"
         id="path19-9-2-1-9-5"
         d="m -302.21423,626.44942 c -0.90912,0 -1.63608,0.72951 -1.63608,1.63864 v 13.4522 h 20.54701 v -13.4522 c 0,-0.90913 -0.72697,-1.63864 -1.63609,-1.63864 z m -1.7001,19.57662 v 75.83063 h 0.064 v 6.35485 c 0,0.90912 0.72696,1.63864 1.63608,1.63864 h 17.27484 c 0.90912,0 1.63609,-0.72952 1.63609,-1.63864 v -6.35485 h 0.0666 v -75.83063 z"
         style="clip-rule:evenodd;fill:#ffffff;fill-opacity:1;fill-rule:evenodd;stroke-width:1.81821978"
         inkscape:connector-curvature="0" />
      <path
         inkscape:export-ydpi="637.03998"
         inkscape:export-xdpi="637.03998"
         id="path11-1-5-5-9"
         d="m -269.83317,646.02604 c -2.01579,0.36365 -3.86239,1.454 -5.37423,2.90859 -1.67981,1.81822 -2.85738,4.5467 -2.85738,7.27402 v 64.0017 c 0,2.72733 1.00602,5.45324 2.68584,7.27146 0.8399,1.09093 3.19469,2.54498 4.37055,2.7268 h 42.35373 v -0.0102 h 5.37934 v 0.0102 h 14.82458 c 1.96495,-0.36365 3.76482,-1.454 5.23852,-2.90858 1.63745,-1.81823 2.78314,-4.5467 2.78314,-7.27403 v -21.8528 h -0.0282 v -41.78276 c 0,-2.90915 -1.0096,-5.4558 -2.85737,-7.27403 -1.00789,-1.45458 -3.18945,-2.90854 -5.20525,-3.09037 h -5.20779 -4.368 z m 11.08642,20.54445 h 39.47586 v 33.4641 h 0.0131 v 9.62701 h -4.01724 v 0.008 h -5.37934 v -0.005 h -30.09209 z"
         style="clip-rule:evenodd;fill:#ffffff;fill-opacity:1;fill-rule:evenodd;stroke-width:1.747648"
         inkscape:connector-curvature="0" />
      <path
         inkscape:export-ydpi="637.03998"
         inkscape:export-xdpi="637.03998"
         inkscape:connector-curvature="0"
         id="path11-2-8-9-1-5-7"
         d="m -193.70214,645.66695 c -0.90912,0 -1.63607,0.67958 -1.63607,1.52854 v 10.11605 2.44772 61.19552 h 0.0512 v 7.72977 c 0,0.84494 0.72696,1.52342 1.63608,1.52342 h 17.27485 c 0.90913,0 1.63608,-0.67848 1.63608,-1.52342 v -7.72977 -4.77254 -18.17867 h 21.0258 1.95613 v 24.88685 h 0.0512 v 5.63027 c 0,0.93495 0.73689,1.68728 1.65912,1.68728 h 17.52321 c 0.92226,0 1.66169,-0.75233 1.66169,-1.68728 v -13.83371 h -0.01 v -5.195 h 0.006 v -21.8528 c 0,-2.72733 -1.14568,-5.4558 -2.78311,-7.27403 -1.47375,-1.45456 -3.27358,-2.54494 -5.23855,-2.90858 h -10.80734 v -0.0512 h -25.04302 v -20.09382 h -0.0512 V 647.1955 c 0,-0.84897 -0.72696,-1.52853 -1.63607,-1.52854 z m 43.69024,0 c -0.92223,0 -1.65911,0.74977 -1.65911,1.68473 v 13.8337 h 0.064 v 11.31173 c 0,0.93497 0.73689,1.68474 1.65913,1.68474 h 17.52577 c 0.92226,0 1.65912,-0.74977 1.65912,-1.68474 v -13.83369 h -0.0641 v -11.31174 c 0,-0.93496 -0.73685,-1.68473 -1.65911,-1.68473 z"
         style="clip-rule:evenodd;fill:#ffffff;fill-opacity:1;fill-rule:evenodd;stroke-width:1.725474" />
    </g>
  </g>
</svg>
