<?xml version="1.0" encoding="UTF-8" standalone="no"?>
<!-- Generator: Adobe Illustrator 19.2.1, SVG Export Plug-In . SVG Version: 6.00 Build 0)  -->

<svg
   xmlns:dc="http://purl.org/dc/elements/1.1/"
   xmlns:cc="http://creativecommons.org/ns#"
   xmlns:rdf="http://www.w3.org/1999/02/22-rdf-syntax-ns#"
   xmlns:svg="http://www.w3.org/2000/svg"
   xmlns="http://www.w3.org/2000/svg"
   xmlns:sodipodi="http://sodipodi.sourceforge.net/DTD/sodipodi-0.dtd"
   xmlns:inkscape="http://www.inkscape.org/namespaces/inkscape"
   version="1.1"
   id="Layer_1"
   x="0px"
   y="0px"
   viewBox="0 0 593.3 114.5"
   xml:space="preserve"
   inkscape:version="0.91 r13725"
   sodipodi:docname="logo.svg"
   width="593.29999"
   height="114.5"><metadata
     id="metadata27"><rdf:RDF><cc:Work
         rdf:about=""><dc:format>image/svg+xml</dc:format><dc:type
           rdf:resource="http://purl.org/dc/dcmitype/StillImage" /><dc:title></dc:title></cc:Work></rdf:RDF></metadata><defs
     id="defs25" /><sodipodi:namedview
     pagecolor="#ffffff"
     bordercolor="#666666"
     borderopacity="1"
     objecttolerance="10"
     gridtolerance="10"
     guidetolerance="10"
     inkscape:pageopacity="0"
     inkscape:pageshadow="2"
     inkscape:window-width="1920"
     inkscape:window-height="1017"
     id="namedview23"
     showgrid="false"
     inkscape:zoom="2.0493869"
     inkscape:cx="279.70433"
     inkscape:cy="74.840905"
     inkscape:window-x="-8"
     inkscape:window-y="-8"
     inkscape:window-maximized="1"
     inkscape:current-layer="Layer_1" /><style
     type="text/css"
     id="style3">
	.st0{fill-rule:evenodd;clip-rule:evenodd;fill:#FFFFFF;}
</style><g
     id="g5"
     transform="matrix(1.3003016,0,0,1.3003016,-99.761525,-29.79167)"><path
       class="st0"
       d="M 111.1,50 96.7,26.6 C 96.4,25.9 96,25.3 95.5,24.8 95,24.3 94.4,23.9 93.7,23.6 l 0,0 c -0.4,-0.2 -0.9,-0.3 -1.3,-0.4 -0.4,-0.1 -0.9,-0.1 -1.3,0 l -8.3,0 c -1.6,0 -3,0.6 -4,1.7 -1,1 -1.6,2.3 -1.7,3.8 l 0,0.1 0,60.4 c 0,0.5 0.4,0.9 0.9,0.9 l 9.6,0 c 0.5,0 0.9,-0.4 0.9,-0.9 l 0,-54.7 14.4,23.4 c 0.3,0.7 0.7,1.3 1.2,1.8 0.5,0.5 1.1,0.9 1.8,1.2 l 0,0 c 0.4,0.2 0.9,0.3 1.3,0.4 0.4,0.1 0.9,0.1 1.3,0 l 6.5,0 c 0.4,0 0.9,0 1.3,0 0.5,-0.1 0.9,-0.2 1.3,-0.4 0.7,-0.3 1.3,-0.7 1.9,-1.2 0.5,-0.5 0.9,-1.1 1.2,-1.8 l 14.4,-23.5 0,54.7 c 0,0.5 0.4,0.9 0.9,0.9 l 9.6,0 c 0.5,0 0.9,-0.4 0.9,-0.9 l 0,-60.3 0,-0.1 c 0,-1.5 -0.7,-2.9 -1.7,-3.8 -1,-1 -2.5,-1.7 -4,-1.7 l -8.3,0 c -0.4,0 -0.9,0 -1.3,0 -0.5,0.1 -0.9,0.2 -1.3,0.4 -0.7,0.3 -1.3,0.7 -1.9,1.2 -0.5,0.5 -1,1.1 -1.2,1.8 l -14.3,23.4 -1.4,0 z"
       id="path7"
       inkscape:connector-curvature="0"
       style="clip-rule:evenodd;fill:#ffffff;fill-rule:evenodd" /><path
       class="st0"
       d="m 168.6,55 18.7,0 0,6.1 -18.7,0 0,-6.1 z m -9.7,-9.7 c -1,1 -1.7,2.5 -1.7,4 l 0,35.2 c 0,1.5 0.6,3 1.6,4 l 0,0.1 c 0.7,0.7 1.7,1.3 2.7,1.5 l 2.7,0 15.9,0 8.7,0 c 0.5,0 0.9,-0.4 0.9,-0.9 l 0,-9.6 c 0,-0.5 -0.4,-0.9 -0.9,-0.9 l -20.3,0 0,-6.3 11.4,0 11.4,0 3,0 c 0.7,-0.2 1.4,-0.5 2,-1 1,-0.8 1.7,-1.9 2,-3.1 0.1,-0.2 0.1,-0.5 0.2,-0.8 0,-0.3 0.1,-0.5 0.1,-0.8 l 0,-0.4 0,-0.3 0,-16 0,-0.3 0,-0.4 c 0,-0.8 -0.2,-1.5 -0.4,-2.2 -0.3,-0.7 -0.7,-1.3 -1.2,-1.8 -0.5,-0.5 -1.1,-1 -1.8,-1.3 -0.5,-0.2 -0.9,-0.3 -1.4,-0.4 l -1.5,0 -28.5,0 -1.7,0 c -1.3,0.3 -2.4,0.9 -3.2,1.7 z"
       id="path9"
       inkscape:connector-curvature="0"
       style="clip-rule:evenodd;fill:#ffffff;fill-rule:evenodd" /><path
       class="st0"
       d="m 219.2,55 23.5,0 0,23.7 -23.5,0 0,-23.7 z m 29.9,-11.3 -3.1,0 -2.6,0 -30.8,0 c -1.2,0.2 -2.3,0.8 -3.2,1.6 -1,1 -1.7,2.5 -1.7,4 l 0,35.2 c 0,1.5 0.6,3 1.6,4 0.5,0.6 1.9,1.4 2.6,1.5 l 30.7,0 0,9.2 -19.5,0 c -0.5,0 -0.9,0.4 -0.9,0.9 l 0,9.6 c 0,0.5 0.4,0.9 0.9,0.9 l 25.1,0 c 3.1,0 5.7,-2.5 5.7,-5.7 l 0,-55.5 c 0,-1.6 -0.6,-3 -1.7,-4 -0.6,-0.8 -1.9,-1.6 -3.1,-1.7 z"
       id="path11"
       inkscape:connector-curvature="0"
       style="clip-rule:evenodd;fill:#ffffff;fill-rule:evenodd" /><path
       class="st0"
       d="m 275.4,72.4 18.6,0 0,6.3 -18.7,0 0,-6.3 z m -2.3,-28 0,9.6 c 0,0.5 0.4,0.9 0.9,0.9 l 20,0 0,6.3 -24,0 -0.1,0 0,0 -0.2,0 c -1.6,0 -3,0.6 -4,1.7 -1,1 -1.7,2.4 -1.7,4 l 0,17.7 c 0,1.6 0.6,3 1.7,4 0.7,0.7 1.7,1.3 2.8,1.5 l 2.5,0 27.3,0 3,0 c 1,-0.3 1.9,-0.8 2.6,-1.5 l 0,0 c 1,-1 1.7,-2.5 1.7,-4 l 0,-35.2 c 0,-1.6 -0.6,-3 -1.7,-4 -0.9,-0.9 -2.1,-1.5 -3.5,-1.6 -0.2,-0.1 -0.3,-0.2 -0.6,-0.2 l 0,0 -25.8,0 c -0.4,-0.1 -0.9,0.3 -0.9,0.8 z"
       id="path13"
       inkscape:connector-curvature="0"
       style="clip-rule:evenodd;fill:#ffffff;fill-rule:evenodd" /><path
       class="st0"
       d="m 326.8,55 36.8,0 0,23.7 -36.8,0 0,-23.7 z m 21,-11.4 -21.1,0 0,-9.1 21.1,0 0,9.1 z m -32.4,-14.7 0,20.1 0,0 0,0.1 0,0.2 0,35.1 c 0,1.6 0.6,3 1.7,4 1,1 2.5,1.7 4,1.7 l 48.2,0 c 1.6,0 3,-0.6 4,-1.7 1,-1 1.7,-2.5 1.7,-4 l 0,-35.1 c 0,-1.6 -0.6,-3 -1.7,-4 -1,-1 -2.5,-1.7 -4,-1.7 l -10,0 0,-14.7 c 0,-1.6 -0.6,-3 -1.7,-4 -1,-1 -2.5,-1.7 -4,-1.7 l -32.5,0 c -1.6,0 -3,0.6 -4,1.7 -1.1,1 -1.7,2.4 -1.7,4 z"
       id="path15"
       inkscape:connector-curvature="0"
       style="clip-rule:evenodd;fill:#ffffff;fill-rule:evenodd" /><path
       class="st0"
       d="m 430,61 c -2.5,0 -4.7,1 -6.3,2.6 -1.6,1.6 -2.6,3.9 -2.6,6.3 0,1.6 1.3,2.8 2.8,2.8 1.6,0 2.8,-1.3 2.8,-2.8 0,-0.9 0.4,-1.7 1,-2.3 0.6,-0.6 1.4,-1 2.3,-1 0.9,0 1.7,0.4 2.3,1 0.6,0.6 1,1.4 1,2.3 0,1.6 1.3,2.8 2.8,2.8 1.5,0 2.8,-1.3 2.8,-2.8 0,-2.5 -1,-4.7 -2.6,-6.3 C 434.8,62 432.5,61 430,61 m -35.2,-7.2 48.8,0 0,26.1 -48.8,0 0,-26.1 z m -4.3,-10.2 c -3.1,0 -5.7,2.5 -5.7,5.7 l 0,35.1 c 0,3.1 2.6,5.7 5.7,5.7 l 57.5,0 c 1.6,0 3,-0.6 4,-1.7 1,-1 1.7,-2.5 1.7,-4 l 0,-35.1 c 0,-3.1 -2.5,-5.7 -5.7,-5.7 l -15.7,0 3,-9.2 c 1.2,-0.1 2.3,-0.7 3.1,-1.5 0.9,-0.9 1.5,-2.2 1.5,-3.7 0,-1.5 -0.6,-2.7 -1.5,-3.7 -0.9,-0.9 -2.2,-1.5 -3.7,-1.5 -1.4,0 -2.7,0.6 -3.7,1.5 -0.9,0.9 -1.5,2.2 -1.5,3.7 0,0.7 0.1,1.3 0.4,1.9 0.1,0.4 0.3,0.7 0.6,1.1 l -7.2,10.9 0,0.1 c -0.1,0.1 -0.1,0.3 -0.2,0.4 l -7.4,0 c -0.1,-0.1 -0.1,-0.3 -0.2,-0.4 l 0,-0.1 -7.5,-10.8 c 0.2,-0.3 0.4,-0.7 0.6,-1.1 0.2,-0.6 0.4,-1.2 0.4,-1.9 0,-1.4 -0.6,-2.7 -1.5,-3.7 -0.9,-0.9 -2.2,-1.5 -3.7,-1.5 -1.5,0 -2.7,0.6 -3.7,1.5 -0.9,0.9 -1.5,2.2 -1.5,3.7 0,1.5 0.6,2.7 1.5,3.7 0.8,0.8 1.9,1.4 3.1,1.5 l 3,9.2 -15.7,0 z m 24.2,20 C 413.1,62 410.8,61 408.4,61 c -2.5,0 -4.7,1 -6.3,2.6 -1.6,1.6 -2.6,3.9 -2.6,6.3 0,1.6 1.3,2.8 2.8,2.8 1.6,0 2.8,-1.3 2.8,-2.8 0,-0.9 0.4,-1.7 1,-2.3 0.6,-0.6 1.4,-1 2.3,-1 0.9,0 1.7,0.4 2.3,1 0.6,0.6 1,1.4 1,2.3 0,1.6 1.3,2.8 2.8,2.8 1.6,0 2.8,-1.3 2.8,-2.8 0.1,-2.5 -0.9,-4.7 -2.6,-6.3 z"
       id="path17"
       inkscape:connector-curvature="0"
       style="clip-rule:evenodd;fill:#ffffff;fill-rule:evenodd" /><path
       class="st0"
       d="m 466,43.9 0,12.7 0,0.1 0,27.7 c 0,1.6 0.6,3 1.7,4 1,1 2.4,1.7 4,1.7 l 0.3,0 0,0 0.2,0 0.2,0 0,0 11.4,0 c 0.5,0 0.9,-0.4 0.9,-0.9 l 0,-9.6 c 0,-0.5 -0.4,-0.9 -0.9,-0.9 l -6.5,0 0,-22 0,-0.1 0,-12.7 6.5,0 c 0.5,0 0.9,-0.4 0.9,-0.9 l 0,-8.4 c 0,-0.5 -0.4,-0.9 -0.9,-0.9 l -6.5,0 0,-9.3 c 0,-0.5 -0.4,-0.9 -0.9,-0.9 l -9.5,0 c -0.5,0 -0.9,0.4 -0.9,0.9 l 0,9.3 -6.5,0 c -0.5,0 -0.9,0.4 -0.9,0.9 l 0,8.4 c 0,0.5 0.4,0.9 0.9,0.9 l 6.5,0 z"
       id="path19"
       inkscape:connector-curvature="0"
       style="clip-rule:evenodd;fill:#ffffff;fill-rule:evenodd" /><path
       class="st0"
       d="m 491.6,49.4 0,16.7 c 0,1.2 -0.1,1.7 0.4,2.9 0.6,1.4 1.7,2.5 3.1,3.1 1.2,0.5 1.7,0.4 2.9,0.4 l 23.6,0 0,6.3 -24.4,0 c -0.5,0 -0.9,0.4 -0.9,0.9 l 0,9.5 c 0,0.5 0.4,0.9 0.9,0.9 l 31.3,0 c 1.1,-0.2 2,-0.8 2.8,-1.5 1,-1 1.7,-2.4 1.7,-4 l 0,-17.8 c 0,-3.2 -2.7,-5.8 -6,-5.6 l -24.1,0 0,-6.3 24.4,0 c 0.5,0 0.9,-0.4 0.9,-0.9 l 0,-9.5 c 0,-0.5 -0.4,-0.9 -0.9,-0.9 l -30.1,0 c -0.2,0 -0.4,0.1 -0.5,0.2 -1.3,0.1 -2.6,0.7 -3.5,1.6 -1,1 -1.6,2.5 -1.6,4"
       id="path21"
       inkscape:connector-curvature="0"
       style="clip-rule:evenodd;fill:#ffffff;fill-rule:evenodd" /></g></svg>